<svg id="Layer_1" data-name="Layer 1" xmlns="http://www.w3.org/2000/svg" viewBox="0 0 303.55 79.76"><defs><style>.cls-1{fill:#fff;}</style></defs><title>logo</title><path class="cls-1" d="M484,461.35a39.88,39.88,0,1,1,39.88-39.88A39.92,39.92,0,0,1,484,461.35Zm0-72.76a32.88,32.88,0,1,0,32.88,32.88A32.92,32.92,0,0,0,484,388.59Z" transform="translate(-444.1 -381.59)"/><path class="cls-1" d="M480.7,415.88a0.25,0.25,0,0,0-.24-0.24c-1,0-1.14,0-1.14-.28v-8a0.35,0.35,0,0,1,.35-0.32h8.63a0.34,0.34,0,0,1,.32.32v28.55a0.31,0.31,0,0,1-.28.32H481a0.3,0.3,0,0,1-.28-0.28v-20Z" transform="translate(-444.1 -381.59)"/><path class="cls-1" d="M558,417.38h-5.29v17.8h-6.11v-17.8h-3.36v-2.94l3.36-1.64v-1.64q0-3.82,1.88-5.59t6-1.76a15.68,15.68,0,0,1,5.63.94l-1.56,4.48a11.4,11.4,0,0,0-3.4-.58,2.2,2.2,0,0,0-1.88.77,3.18,3.18,0,0,0-.58,2v1.4H558v4.58ZM561.25,407q0-3,3.32-3t3.32,3a2.91,2.91,0,0,1-.83,2.21,3.49,3.49,0,0,1-2.49.79Q561.25,410,561.25,407Zm6.37,28.17h-6.11V412.79h6.11v22.38Z" transform="translate(-444.1 -381.59)"/><path class="cls-1" d="M586.49,412.37a9.85,9.85,0,0,1,2.06.18l-0.46,5.73a7,7,0,0,0-1.8-.2,6.48,6.48,0,0,0-4.55,1.5,5.43,5.43,0,0,0-1.63,4.21v11.39H574V412.79h4.63l0.9,3.76h0.3a8.41,8.41,0,0,1,2.81-3A6.94,6.94,0,0,1,586.49,412.37Z" transform="translate(-444.1 -381.59)"/><path class="cls-1" d="M612.66,435.17h-6.11V422.1a6.59,6.59,0,0,0-.81-3.63,2.85,2.85,0,0,0-2.55-1.21,3.7,3.7,0,0,0-3.4,1.72q-1.06,1.72-1.06,5.67v10.53h-6.11V412.79h4.66l0.82,2.86h0.34a6.2,6.2,0,0,1,2.6-2.41,8.46,8.46,0,0,1,3.9-.87q5,0,6.81,3.28h0.54a6,6,0,0,1,2.65-2.42,8.85,8.85,0,0,1,4-.86,7.81,7.81,0,0,1,5.76,2q2,2,2,6.26v14.59h-6.13V422.1a6.59,6.59,0,0,0-.81-3.63,2.85,2.85,0,0,0-2.55-1.21,3.81,3.81,0,0,0-3.35,1.6,9.1,9.1,0,0,0-1.11,5.09v11.23Z" transform="translate(-444.1 -381.59)"/><path class="cls-1" d="M638.2,435.17l-8.53-22.38h6.39l4.32,12.75a22.74,22.74,0,0,1,.9,4.58h0.12a19.9,19.9,0,0,1,.9-4.58l4.3-12.75H653l-8.53,22.38H638.2Z" transform="translate(-444.1 -381.59)"/><path class="cls-1" d="M655.94,407q0-3,3.32-3t3.32,3a2.91,2.91,0,0,1-.83,2.21,3.49,3.49,0,0,1-2.49.79Q655.94,410,655.94,407Zm6.37,28.17H656.2V412.79h6.11v22.38Z" transform="translate(-444.1 -381.59)"/><path class="cls-1" d="M684.33,428.53a6.16,6.16,0,0,1-2.39,5.25q-2.39,1.8-7.16,1.8a22.52,22.52,0,0,1-4.16-.33,15.79,15.79,0,0,1-3.22-1v-5a21.31,21.31,0,0,0,3.83,1.34,15.52,15.52,0,0,0,3.75.54q3.32,0,3.32-1.92a1.6,1.6,0,0,0-.44-1.17,6.37,6.37,0,0,0-1.52-1q-1.08-.57-2.88-1.33a18.09,18.09,0,0,1-3.79-2,5.62,5.62,0,0,1-1.76-2.11,7,7,0,0,1-.55-2.93,5.32,5.32,0,0,1,2.31-4.61,11.27,11.27,0,0,1,6.56-1.63,18.62,18.62,0,0,1,7.87,1.76l-1.84,4.4q-1.68-.72-3.14-1.18a9.89,9.89,0,0,0-3-.46q-2.7,0-2.7,1.46a1.72,1.72,0,0,0,.87,1.42,23.73,23.73,0,0,0,3.81,1.78,17.7,17.7,0,0,1,3.84,2,5.86,5.86,0,0,1,1.8,2.12A6.53,6.53,0,0,1,684.33,428.53Z" transform="translate(-444.1 -381.59)"/><path class="cls-1" d="M688.83,407q0-3,3.32-3t3.32,3a2.91,2.91,0,0,1-.83,2.21,3.49,3.49,0,0,1-2.49.79Q688.83,410,688.83,407Zm6.37,28.17h-6.11V412.79h6.11v22.38Z" transform="translate(-444.1 -381.59)"/><path class="cls-1" d="M721.94,423.94q0,5.46-2.88,8.55a10.45,10.45,0,0,1-8,3.08,11.23,11.23,0,0,1-5.69-1.41,9.39,9.39,0,0,1-3.78-4.05,13.62,13.62,0,0,1-1.32-6.17q0-5.49,2.86-8.53t8-3a11.29,11.29,0,0,1,5.69,1.4,9.35,9.35,0,0,1,3.78,4A13.5,13.5,0,0,1,721.94,423.94Zm-15.47,0a9.39,9.39,0,0,0,1.09,5,3.9,3.9,0,0,0,3.55,1.7,3.84,3.84,0,0,0,3.51-1.69,9.53,9.53,0,0,0,1.07-5,9.25,9.25,0,0,0-1.08-5,4.6,4.6,0,0,0-7.07,0A9.24,9.24,0,0,0,706.47,423.94Z" transform="translate(-444.1 -381.59)"/><path class="cls-1" d="M747.65,435.17h-6.11V422.1a6.28,6.28,0,0,0-.86-3.63,3.13,3.13,0,0,0-2.74-1.21,4.12,4.12,0,0,0-3.7,1.71q-1.14,1.71-1.14,5.68v10.53H727V412.79h4.66l0.82,2.86h0.34a6.45,6.45,0,0,1,2.81-2.45,9.58,9.58,0,0,1,4.07-.83,7.83,7.83,0,0,1,5.93,2.11,8.48,8.48,0,0,1,2,6.1v14.59Z" transform="translate(-444.1 -381.59)"/></svg>